# xmcd
#
# Track frame offsets: 
#        182
#        16640
#        35582
#        53592
#        73292
#        87910
#        106715
#        126310
#        144805
#        166460
#
# Disc length: 2419 seconds
#
# Revision: 0
# Processed by: cddbd v1.5.2PL0 Copyright (c) Steve Scherf et al.
# Submitted via: ExactAudioCopyFreeDBPlugin 1.0
#
DISCID=7b09710a
DTITLE=Florent Pagny - Réaliste
DYEAR=1900
DGENRE=
TTITLE0=Tue-moi
TTITLE1=Qu'est-ce qu'on fait ?
TTITLE2=Elle dit
TTITLE3=Aveugles du pouvoir
TTITLE4=Et qui sait
TTITLE5=Tout seul ensemble
TTITLE6=Paupières mi-closes
TTITLE7=Economie est une déesse
TTITLE8=Ma vie de mort
TTITLE9=Bien sûr qu'il n'y a rien à dire
EXTD=
EXTT0=
EXTT1=
EXTT2=
EXTT3=
EXTT4=
EXTT5=
EXTT6=
EXTT7=
EXTT8=
EXTT9=
PLAYORDER=
